<svg id="darkblue" xmlns="http://www.w3.org/2000/svg" viewBox="0 0 1187.76 312.24"><defs><style>.cls-1{fill:#051441;}.cls-2{fill:#fff;}</style></defs><title>logo-darkblue</title><path class="cls-1" d="M374.44,84.12q27.88,0,42.84,9.81t14.94,32.13q0,22.5-15.12,32.49t-43.2,10h-8.82V210.3H337V87.36a158.86,158.86,0,0,1,19.44-2.52Q366.7,84.12,374.44,84.12Zm1.8,23.94c-2.05,0-4.05.06-6,.18s-3.69.24-5.13.36v36h8.82q14.58,0,22-4t7.38-14.76a17.71,17.71,0,0,0-1.89-8.64,14.37,14.37,0,0,0-5.4-5.49,24.39,24.39,0,0,0-8.55-2.88A70.8,70.8,0,0,0,376.24,108.06Z"/><path class="cls-1" d="M481.54,113.1q11.88,0,19.8,2.7A30.75,30.75,0,0,1,514,123.54a28.66,28.66,0,0,1,6.75,12.24,60.37,60.37,0,0,1,2,16v55.8q-5.78,1.26-16,3a153.94,153.94,0,0,1-24.84,1.71,78.69,78.69,0,0,1-16.65-1.62,36.14,36.14,0,0,1-12.87-5.31,24.22,24.22,0,0,1-8.28-9.63,33.24,33.24,0,0,1-2.88-14.58,27.53,27.53,0,0,1,3.33-14,25.63,25.63,0,0,1,8.91-9.18A40.17,40.17,0,0,1,466.24,153a71.62,71.62,0,0,1,14.94-1.53,84.82,84.82,0,0,1,9.27.45,41.48,41.48,0,0,1,6.57,1.17v-2.52q0-6.84-4.14-11t-14.4-4.14a91.49,91.49,0,0,0-13.5,1,57.91,57.91,0,0,0-11.52,2.79L450,117.6c1.55-.48,3.51-1,5.85-1.53s4.88-1,7.65-1.44,5.67-.78,8.73-1.08S478.41,113.1,481.54,113.1Zm2.16,78.48q3.94,0,7.56-.18a52.6,52.6,0,0,0,5.76-.54V170.52q-1.62-.36-4.86-.72a54.12,54.12,0,0,0-5.94-.36,53.16,53.16,0,0,0-7.11.45,18.5,18.5,0,0,0-5.85,1.71,10,10,0,0,0-4,3.42,9.45,9.45,0,0,0-1.44,5.4q0,6.3,4.23,8.73T483.7,191.58Z"/><path class="cls-1" d="M604.11,139.38c-2.4-.6-5.21-1.23-8.46-1.89a52.28,52.28,0,0,0-10.44-1,48.3,48.3,0,0,0-6,.45,35,35,0,0,0-5.31,1V210.3H547.05V120.66a160.66,160.66,0,0,1,17-4.77,97.89,97.89,0,0,1,21.87-2.25c1.43,0,3.17.09,5.21.27s4.08.42,6.13.72,4.07.66,6.12,1.08a28.91,28.91,0,0,1,5.21,1.53Z"/><path class="cls-1" d="M650.19,191q7.38,0,10.44-1.44t3.06-5.58q0-3.24-4-5.67a75.87,75.87,0,0,0-12.07-5.49A123.59,123.59,0,0,1,636.24,168a33.6,33.6,0,0,1-8.73-6,24.39,24.39,0,0,1-5.58-8.37,31,31,0,0,1-2-11.7q0-13.32,9.91-21.06T657,113.1a87.16,87.16,0,0,1,16.56,1.53,77.05,77.05,0,0,1,12.6,3.33l-4.68,20.88A98.48,98.48,0,0,0,671.34,136,55.27,55.27,0,0,0,659,134.7q-12.6,0-12.6,7a7.25,7.25,0,0,0,.54,2.88,6.23,6.23,0,0,0,2.16,2.43,30.6,30.6,0,0,0,4.42,2.53c1.85.91,4.22,1.9,7.1,3A110.65,110.65,0,0,1,675.21,159a34.94,34.94,0,0,1,9.09,6.86A21.39,21.39,0,0,1,689,174a36.71,36.71,0,0,1,1.34,10.42q0,14-10.53,21.19T650,212.82a84.08,84.08,0,0,1-32.58-5.76l4.5-21.78a88,88,0,0,0,14,4.23A68.27,68.27,0,0,0,650.19,191Z"/><path class="cls-1" d="M705.81,163.68a57.9,57.9,0,0,1,3.87-22.05,47.27,47.27,0,0,1,10.17-15.75,42.31,42.31,0,0,1,14.49-9.54,45.37,45.37,0,0,1,16.83-3.24q20.16,0,31.86,12.33t11.7,36.27q0,2.34-.18,5.13t-.36,4.95H733.35a17.82,17.82,0,0,0,7.74,13.14q6.84,4.86,18.36,4.86a77.51,77.51,0,0,0,14.49-1.35,54.7,54.7,0,0,0,11.61-3.33l3.6,21.78a37,37,0,0,1-5.76,2.16,75.37,75.37,0,0,1-8,1.89q-4.41.81-9.45,1.35a94.55,94.55,0,0,1-10.08.54q-12.78,0-22.23-3.78A43.3,43.3,0,0,1,718,198.69a41.08,41.08,0,0,1-9.18-15.57A61.68,61.68,0,0,1,705.81,163.68Zm63-10.26a27.68,27.68,0,0,0-1.17-6.66,16.63,16.63,0,0,0-3.06-5.76,16.29,16.29,0,0,0-5.22-4.14,17,17,0,0,0-7.83-1.62,18,18,0,0,0-7.74,1.53,16,16,0,0,0-5.4,4,18.12,18.12,0,0,0-3.33,5.85,38.39,38.39,0,0,0-1.71,6.75Z"/><path class="cls-1" d="M853.23,212.1q-11.7-.18-19-2.52A28.13,28.13,0,0,1,822.72,203,21.8,21.8,0,0,1,817,192.75a55.36,55.36,0,0,1-1.53-13.59V74.94l26.82-4.32V173.76a35.34,35.34,0,0,0,.54,6.48,11.18,11.18,0,0,0,2.07,4.86,11,11,0,0,0,4.41,3.24A24.17,24.17,0,0,0,857,190Z"/><path class="cls-1" d="M901.65,88.26q0,7.38-4.77,11.61a17.08,17.08,0,0,1-22.5,0q-4.77-4.23-4.77-11.61t4.77-11.61a17.08,17.08,0,0,1,22.5,0Q901.65,80.88,901.65,88.26Zm-2.52,122H872.31V115.62h26.82Z"/><path class="cls-1" d="M995.43,133.62q-3.25,3.6-8.75,9.72t-11.81,13.5q-6.32,7.38-12.72,15.48T950.52,188h45.81V210.3H918V194.46q3.78-6.48,9.09-14t11.16-15q5.85-7.56,11.61-14.67t10.62-12.87H920.19V115.62h75.24Z"/><path class="cls-1" d="M1007.13,163.68a57.9,57.9,0,0,1,3.87-22.05,47.27,47.27,0,0,1,10.17-15.75,42.31,42.31,0,0,1,14.49-9.54,45.37,45.37,0,0,1,16.83-3.24q20.16,0,31.86,12.33t11.7,36.27q0,2.34-.18,5.13t-.36,4.95h-60.84a17.82,17.82,0,0,0,7.74,13.14q6.84,4.86,18.36,4.86a77.51,77.51,0,0,0,14.49-1.35,54.7,54.7,0,0,0,11.61-3.33l3.6,21.78a37,37,0,0,1-5.76,2.16,75.37,75.37,0,0,1-8,1.89q-4.41.81-9.45,1.35a94.55,94.55,0,0,1-10.08.54q-12.78,0-22.23-3.78a43.3,43.3,0,0,1-15.66-10.35,41.08,41.08,0,0,1-9.18-15.57A61.68,61.68,0,0,1,1007.13,163.68Zm63-10.26a27.68,27.68,0,0,0-1.17-6.66,16.63,16.63,0,0,0-3.06-5.76,16.29,16.29,0,0,0-5.22-4.14,17,17,0,0,0-7.83-1.62,18,18,0,0,0-7.74,1.53,16,16,0,0,0-5.4,4,18.12,18.12,0,0,0-3.33,5.85,38.39,38.39,0,0,0-1.71,6.75Z"/><path class="cls-1" d="M1173.81,139.38q-3.6-.9-8.46-1.89a52.28,52.28,0,0,0-10.44-1,48.44,48.44,0,0,0-6,.45,35.49,35.49,0,0,0-5.31,1V210.3h-26.82V120.66a161.11,161.11,0,0,1,17-4.77,98,98,0,0,1,21.87-2.25q2.16,0,5.22.27t6.12.72q3.06.45,6.12,1.08a28.8,28.8,0,0,1,5.22,1.53Z"/><path class="cls-1" d="M297.89,135,175.05,12.11a30,30,0,0,0-42.43,0L9.87,134.86a30,30,0,0,0,0,42.43l79,79V156.61h25V281.3l18.83,18.83a30,30,0,0,0,42.43,0L297.89,177.38A30,30,0,0,0,297.89,135Z"/><polygon class="cls-2" points="88.88 156.61 88.88 256.3 113.88 281.3 113.88 156.61 88.88 156.61"/><circle id="P_top" data-name="P top" class="cls-2" cx="153.88" cy="156.12" r="65"/><circle id="P_center" data-name="P center" class="cls-1" cx="153.88" cy="156.12" r="40"/></svg>