<svg id="Layer_1" data-name="Layer 1" xmlns="http://www.w3.org/2000/svg" viewBox="0 0 1200 1200"><defs><style>.cls-1{stroke:#000;stroke-miterlimit:10;}</style></defs><title>Artboard 1</title><path class="cls-1" d="M669.05,442.06l-51.82-51.82a29.36,29.36,0,0,0-41.53,0L506.64,459.3C559.84,433.58,618,427.75,669.05,442.06Z"/><path class="cls-1" d="M556.37,632.86v26.81L575.7,679a29.36,29.36,0,0,0,41.53,0l44.19-44.19C628.25,625.71,592.15,625.11,556.37,632.86Z"/><path class="cls-1" d="M740.84,513.85l-71.79-71.79c-51-14.31-109.21-8.48-162.41,17.24l-54.55,54.55A29.36,29.36,0,0,0,446,546.46,263.52,263.52,0,0,1,549.3,491a64.12,64.12,0,0,1,87-6.8c42.72,5.07,82.43,23,113,53.9A29.3,29.3,0,0,0,740.84,513.85Z"/><path class="cls-1" d="M636.5,532.69a40.08,40.08,0,1,0-80,4.39A227.76,227.76,0,0,1,636.5,532.69Z"/><path class="cls-1" d="M660.67,537.25a187.21,187.21,0,0,1,66.78,31.52c13.59-13.59,20.29-18.26,21.76-30.68-30.52-30.92-70.23-48.83-113-53.9A64.1,64.1,0,0,1,660.67,537.25Z"/><path class="cls-1" d="M471.06,574.35A261.42,261.42,0,0,1,532.18,544c0-10.58-1.83-32.56,17.12-53A263.52,263.52,0,0,0,446,546.46C448.9,553,450.8,554.09,471.06,574.35Z"/><path class="cls-1" d="M532.18,635.47v-43.8a256.73,256.73,0,0,0-31.1,12.7Z"/><path class="cls-1" d="M556.51,584.91l-.14,0v47.91c35.78-7.75,71.88-7.15,105,1.94l35.47-35.47a195.73,195.73,0,0,0-56.72-17.64A64.1,64.1,0,0,1,556.51,584.91Z"/><path class="cls-1" d="M596.46,574.7a40.13,40.13,0,0,0,40-42,227.76,227.76,0,0,0-80,4.39A40.12,40.12,0,0,0,596.46,574.7Z"/><path class="cls-1" d="M640.17,581.69a195.73,195.73,0,0,1,56.72,17.64l30.56-30.56a187.21,187.21,0,0,0-66.78-31.52A64.11,64.11,0,0,1,640.17,581.69Z"/><path class="cls-1" d="M501.08,604.37a256.73,256.73,0,0,1,31.1-12.7V544a261.42,261.42,0,0,0-61.12,30.33Z"/><path class="cls-1" d="M556.37,584.81V585l.14,0Z"/></svg>