<?xml version="1.0" encoding="utf-8"?>
<!-- Generator: Adobe Illustrator 23.0.0, SVG Export Plug-In . SVG Version: 6.00 Build 0)  -->
<svg version="1.1" xmlns="http://www.w3.org/2000/svg" xmlns:xlink="http://www.w3.org/1999/xlink" x="0px" y="0px"
	 viewBox="0 0 1193.5 312.2" style="enable-background:new 0 0 1193.5 312.2;" xml:space="preserve">
<style type="text/css">
	.st0{fill:#5F51FB;}
	.st1{fill:#FFFFFF;}
	.st2{display:none;}
	.st3{display:inline;}
	.st4{display:inline;fill:#5F51FB;}
	.st5{display:inline;fill:#FFFFFF;}
</style>
<g id="darkblue">
	<g>
		<path class="st0" d="M379.4,85.1c18.6,0,32.9,3.3,42.8,9.8c10,6.5,14.9,17.3,14.9,32.1c0,15-5,25.8-15.1,32.5s-24.5,10-43.2,10
			h-8.8v41.8H342V88.4c6.1-1.2,12.6-2,19.4-2.5C368.3,85.4,374.3,85.1,379.4,85.1z M381.2,109.1c-2,0-4.1,0.1-6,0.2
			c-2,0.1-3.7,0.2-5.1,0.4v36h8.8c9.7,0,17-1.3,22-4c4.9-2.6,7.4-7.6,7.4-14.8c0-3.5-0.6-6.4-1.9-8.6c-1.3-2.3-3.1-4.1-5.4-5.5
			c-2.3-1.4-5.2-2.3-8.6-2.9C389,109.3,385.3,109.1,381.2,109.1z"/>
		<path class="st0" d="M486.5,114.1c7.9,0,14.5,0.9,19.8,2.7c5.3,1.8,9.5,4.4,12.7,7.7c3.2,3.4,5.4,7.4,6.8,12.2
			c1.3,4.8,2,10.1,2,16v55.8c-3.8,0.8-9.2,1.8-16,3c-6.8,1.1-15.1,1.7-24.8,1.7c-6.1,0-11.7-0.5-16.6-1.6c-5-1.1-9.3-2.8-12.9-5.3
			c-3.6-2.5-6.4-5.7-8.3-9.6c-1.9-4-2.9-8.8-2.9-14.6c0-5.5,1.1-10.2,3.3-14c2.2-3.8,5.2-6.9,8.9-9.2c3.7-2.3,8-3.9,12.8-5
			c4.8-1,9.8-1.5,14.9-1.5c3.5,0,6.6,0.2,9.3,0.4c2.7,0.3,4.9,0.7,6.6,1.2v-2.5c0-4.6-1.4-8.2-4.1-11c-2.8-2.8-7.6-4.1-14.4-4.1
			c-4.6,0-9.1,0.3-13.5,1c-4.4,0.7-8.3,1.6-11.5,2.8l-3.4-21.6c1.6-0.5,3.5-1,5.9-1.5c2.3-0.5,4.9-1,7.6-1.4
			c2.8-0.4,5.7-0.8,8.7-1.1C480.3,114.2,483.4,114.1,486.5,114.1z M488.7,192.6c2.6,0,5.2-0.1,7.6-0.2c2.4-0.1,4.3-0.3,5.8-0.5
			v-20.3c-1.1-0.2-2.7-0.5-4.9-0.7c-2.2-0.2-4.1-0.4-5.9-0.4c-2.5,0-4.9,0.2-7.1,0.4c-2.2,0.3-4.2,0.9-5.9,1.7c-1.7,0.8-3,2-4,3.4
			c-1,1.4-1.4,3.2-1.4,5.4c0,4.2,1.4,7.1,4.2,8.7C479.9,191.8,483.8,192.6,488.7,192.6z"/>
		<path class="st0" d="M609.1,140.4c-2.4-0.6-5.2-1.2-8.5-1.9c-3.2-0.7-6.7-1-10.4-1c-1.7,0-3.7,0.2-6,0.4c-2.3,0.3-4.1,0.6-5.3,1
			v72.4h-26.8v-89.6c4.8-1.7,10.5-3.3,17-4.8c6.5-1.5,13.8-2.3,21.9-2.3c1.4,0,3.2,0.1,5.2,0.3c2,0.2,4.1,0.4,6.1,0.7
			c2,0.3,4.1,0.7,6.1,1.1c2,0.4,3.8,0.9,5.2,1.5L609.1,140.4z"/>
		<path class="st0" d="M655.2,192c4.9,0,8.4-0.5,10.4-1.4c2-1,3.1-2.8,3.1-5.6c0-2.2-1.3-4.1-4-5.7c-2.6-1.6-6.7-3.4-12.1-5.5
			c-4.2-1.6-8-3.2-11.4-4.9c-3.4-1.7-6.3-3.7-8.7-6c-2.4-2.3-4.3-5.1-5.6-8.4c-1.3-3.2-2-7.1-2-11.7c0-8.9,3.3-15.9,9.9-21.1
			c6.6-5.2,15.7-7.7,27.2-7.7c5.8,0,11.3,0.5,16.6,1.5c5.3,1,9.5,2.1,12.6,3.3l-4.7,20.9c-3.1-1.1-6.5-2-10.2-2.9
			c-3.7-0.8-7.8-1.3-12.3-1.3c-8.4,0-12.6,2.3-12.6,7c0,1.1,0.2,2,0.5,2.9c0.4,0.8,1.1,1.7,2.2,2.4c1.1,0.8,2.5,1.6,4.4,2.5
			c1.9,0.9,4.2,1.9,7.1,3c5.9,2.2,10.7,4.3,14.6,6.4c3.8,2.1,6.9,4.4,9.1,6.9c2.2,2.5,3.8,5.2,4.7,8.2c0.9,3,1.3,6.5,1.3,10.4
			c0,9.3-3.5,16.4-10.5,21.2c-7,4.8-17,7.2-29.8,7.2c-8.4,0-15.4-0.7-21-2.2c-5.6-1.4-9.5-2.6-11.6-3.6l4.5-21.8
			c4.6,1.8,9.2,3.2,14,4.2C645.8,191.5,650.5,192,655.2,192z"/>
		<path class="st0" d="M710.8,164.7c0-8.4,1.3-15.7,3.9-22c2.6-6.3,6-11.5,10.2-15.7c4.2-4.2,9-7.4,14.5-9.5
			c5.5-2.2,11.1-3.2,16.8-3.2c13.4,0,24.1,4.1,31.9,12.3c7.8,8.2,11.7,20.3,11.7,36.3c0,1.6-0.1,3.3-0.2,5.1c-0.1,1.9-0.2,3.5-0.4,5
			h-60.8c0.6,5.5,3.2,9.9,7.7,13.1c4.6,3.2,10.7,4.9,18.4,4.9c4.9,0,9.7-0.5,14.5-1.4c4.7-0.9,8.6-2,11.6-3.3l3.6,21.8
			c-1.4,0.7-3.4,1.4-5.8,2.2c-2.4,0.7-5.1,1.3-8,1.9c-2.9,0.5-6.1,1-9.5,1.4c-3.4,0.4-6.7,0.5-10.1,0.5c-8.5,0-15.9-1.3-22.2-3.8
			s-11.5-6-15.7-10.3c-4.1-4.4-7.2-9.6-9.2-15.6C711.8,178.1,710.8,171.6,710.8,164.7z M773.8,154.4c-0.1-2.3-0.5-4.5-1.2-6.7
			c-0.7-2.2-1.7-4.1-3.1-5.8c-1.4-1.7-3.1-3.1-5.2-4.1c-2.1-1.1-4.7-1.6-7.8-1.6c-3,0-5.6,0.5-7.7,1.5c-2.2,1-4,2.4-5.4,4
			c-1.4,1.7-2.6,3.6-3.3,5.9c-0.8,2.2-1.3,4.5-1.7,6.7H773.8z"/>
		<path class="st0" d="M858.2,213.1c-7.8-0.1-14.1-1-19-2.5c-4.9-1.6-8.7-3.7-11.5-6.6c-2.8-2.8-4.7-6.2-5.8-10.3
			c-1-4-1.5-8.5-1.5-13.6V75.9l26.8-4.3v103.1c0,2.4,0.2,4.6,0.5,6.5c0.4,1.9,1,3.5,2.1,4.9c1,1.3,2.5,2.4,4.4,3.2
			c1.9,0.8,4.5,1.4,7.7,1.6L858.2,213.1z"/>
		<path class="st0" d="M906.7,89.3c0,4.9-1.6,8.8-4.8,11.6c-3.2,2.8-6.9,4.2-11.3,4.2s-8.1-1.4-11.3-4.2c-3.2-2.8-4.8-6.7-4.8-11.6
			c0-4.9,1.6-8.8,4.8-11.6c3.2-2.8,6.9-4.2,11.3-4.2s8.1,1.4,11.3,4.2C905.1,80.5,906.7,84.3,906.7,89.3z M904.1,211.3h-26.8v-94.7
			h26.8V211.3z"/>
		<path class="st0" d="M1000.4,134.6c-2.2,2.4-5.1,5.6-8.7,9.7c-3.7,4.1-7.6,8.6-11.8,13.5c-4.2,4.9-8.4,10.1-12.7,15.5
			c-4.3,5.4-8.1,10.6-11.6,15.7h45.8v22.3H923v-15.8c2.5-4.3,5.5-9,9.1-14c3.5-5,7.3-10,11.2-15c3.9-5,7.8-9.9,11.6-14.7
			c3.8-4.7,7.4-9,10.6-12.9h-40.3v-22.3h75.2V134.6z"/>
		<path class="st0" d="M1012.1,164.7c0-8.4,1.3-15.7,3.9-22c2.6-6.3,6-11.5,10.2-15.7c4.2-4.2,9-7.4,14.5-9.5
			c5.5-2.2,11.1-3.2,16.8-3.2c13.4,0,24.1,4.1,31.9,12.3c7.8,8.2,11.7,20.3,11.7,36.3c0,1.6-0.1,3.3-0.2,5.1c-0.1,1.9-0.2,3.5-0.4,5
			h-60.8c0.6,5.5,3.2,9.9,7.7,13.1c4.6,3.2,10.7,4.9,18.4,4.9c4.9,0,9.7-0.5,14.5-1.4c4.7-0.9,8.6-2,11.6-3.3l3.6,21.8
			c-1.4,0.7-3.4,1.4-5.8,2.2c-2.4,0.7-5.1,1.3-8,1.9c-2.9,0.5-6.1,1-9.5,1.4c-3.4,0.4-6.7,0.5-10.1,0.5c-8.5,0-15.9-1.3-22.2-3.8
			s-11.5-6-15.7-10.3c-4.1-4.4-7.2-9.6-9.2-15.6C1013.1,178.1,1012.1,171.6,1012.1,164.7z M1075.1,154.4c-0.1-2.3-0.5-4.5-1.2-6.7
			c-0.7-2.2-1.7-4.1-3.1-5.8c-1.4-1.7-3.1-3.1-5.2-4.1c-2.1-1.1-4.7-1.6-7.8-1.6c-3,0-5.6,0.5-7.7,1.5c-2.2,1-4,2.4-5.4,4
			c-1.4,1.7-2.6,3.6-3.3,5.9c-0.8,2.2-1.3,4.5-1.7,6.7H1075.1z"/>
		<path class="st0" d="M1178.8,140.4c-2.4-0.6-5.2-1.2-8.5-1.9c-3.2-0.7-6.7-1-10.4-1c-1.7,0-3.7,0.2-6,0.4c-2.3,0.3-4.1,0.6-5.3,1
			v72.4h-26.8v-89.6c4.8-1.7,10.5-3.3,17-4.8c6.5-1.5,13.8-2.3,21.9-2.3c1.4,0,3.2,0.1,5.2,0.3c2,0.2,4.1,0.4,6.1,0.7
			c2,0.3,4.1,0.7,6.1,1.1c2,0.4,3.8,0.9,5.2,1.5L1178.8,140.4z"/>
	</g>
	<g>
		<path class="st0" d="M297.9,135.9L175.1,13.1c-11.7-11.7-30.7-11.7-42.4,0L9.9,135.9c-11.7,11.7-11.7,30.7,0,42.4l79,79v-99.7h25
			v124.7l18.8,18.8c11.7,11.7,30.7,11.7,42.4,0l122.8-122.8C309.6,166.7,309.6,147.7,297.9,135.9z"/>
		<polygon class="st1" points="88.9,157.6 88.9,257.3 113.9,282.3 113.9,157.6 		"/>
	</g>
	<circle id="P_top_2_" class="st1" cx="153.9" cy="157.1" r="65"/>
	<circle id="P_center_2_" class="st0" cx="153.9" cy="157.1" r="40"/>
</g>
<g id="white_1_" class="st2">
	<g class="st3">
		<path class="st1" d="M379.4,85.1c18.6,0,32.9,3.3,42.8,9.8c10,6.5,14.9,17.3,14.9,32.1c0,15-5,25.8-15.1,32.5s-24.5,10-43.2,10
			h-8.8v41.8H342V88.4c6.1-1.2,12.6-2,19.4-2.5C368.3,85.4,374.3,85.1,379.4,85.1z M381.2,109.1c-2,0-4.1,0.1-6,0.2
			c-2,0.1-3.7,0.2-5.1,0.4v36h8.8c9.7,0,17-1.3,22-4c4.9-2.6,7.4-7.6,7.4-14.8c0-3.5-0.6-6.4-1.9-8.6c-1.3-2.3-3.1-4.1-5.4-5.5
			c-2.3-1.4-5.2-2.3-8.6-2.9C389,109.3,385.3,109.1,381.2,109.1z"/>
		<path class="st1" d="M486.5,114.1c7.9,0,14.5,0.9,19.8,2.7c5.3,1.8,9.5,4.4,12.7,7.7c3.2,3.4,5.4,7.4,6.8,12.2
			c1.3,4.8,2,10.1,2,16v55.8c-3.8,0.8-9.2,1.8-16,3c-6.8,1.1-15.1,1.7-24.8,1.7c-6.1,0-11.7-0.5-16.6-1.6c-5-1.1-9.3-2.8-12.9-5.3
			c-3.6-2.5-6.4-5.7-8.3-9.6c-1.9-4-2.9-8.8-2.9-14.6c0-5.5,1.1-10.2,3.3-14c2.2-3.8,5.2-6.9,8.9-9.2c3.7-2.3,8-3.9,12.8-5
			c4.8-1,9.8-1.5,14.9-1.5c3.5,0,6.6,0.2,9.3,0.4c2.7,0.3,4.9,0.7,6.6,1.2v-2.5c0-4.6-1.4-8.2-4.1-11c-2.8-2.8-7.6-4.1-14.4-4.1
			c-4.6,0-9.1,0.3-13.5,1c-4.4,0.7-8.3,1.6-11.5,2.8l-3.4-21.6c1.6-0.5,3.5-1,5.9-1.5c2.3-0.5,4.9-1,7.6-1.4
			c2.8-0.4,5.7-0.8,8.7-1.1C480.3,114.2,483.4,114.1,486.5,114.1z M488.7,192.6c2.6,0,5.2-0.1,7.6-0.2c2.4-0.1,4.3-0.3,5.8-0.5
			v-20.3c-1.1-0.2-2.7-0.5-4.9-0.7c-2.2-0.2-4.1-0.4-5.9-0.4c-2.5,0-4.9,0.2-7.1,0.4c-2.2,0.3-4.2,0.9-5.9,1.7c-1.7,0.8-3,2-4,3.4
			c-1,1.4-1.4,3.2-1.4,5.4c0,4.2,1.4,7.1,4.2,8.7C479.9,191.8,483.8,192.6,488.7,192.6z"/>
		<path class="st1" d="M609.1,140.4c-2.4-0.6-5.2-1.2-8.5-1.9c-3.2-0.7-6.7-1-10.4-1c-1.7,0-3.7,0.2-6,0.4c-2.3,0.3-4.1,0.6-5.3,1
			v72.4h-26.8v-89.6c4.8-1.7,10.5-3.3,17-4.8c6.5-1.5,13.8-2.3,21.9-2.3c1.4,0,3.2,0.1,5.2,0.3c2,0.2,4.1,0.4,6.1,0.7
			c2,0.3,4.1,0.7,6.1,1.1c2,0.4,3.8,0.9,5.2,1.5L609.1,140.4z"/>
		<path class="st1" d="M655.2,192c4.9,0,8.4-0.5,10.4-1.4c2-1,3.1-2.8,3.1-5.6c0-2.2-1.3-4.1-4-5.7c-2.6-1.6-6.7-3.4-12.1-5.5
			c-4.2-1.6-8-3.2-11.4-4.9c-3.4-1.7-6.3-3.7-8.7-6c-2.4-2.3-4.3-5.1-5.6-8.4c-1.3-3.2-2-7.1-2-11.7c0-8.9,3.3-15.9,9.9-21.1
			c6.6-5.2,15.7-7.7,27.2-7.7c5.8,0,11.3,0.5,16.6,1.5c5.3,1,9.5,2.1,12.6,3.3l-4.7,20.9c-3.1-1.1-6.5-2-10.2-2.9
			c-3.7-0.8-7.8-1.3-12.3-1.3c-8.4,0-12.6,2.3-12.6,7c0,1.1,0.2,2,0.5,2.9c0.4,0.8,1.1,1.7,2.2,2.4c1.1,0.8,2.5,1.6,4.4,2.5
			c1.9,0.9,4.2,1.9,7.1,3c5.9,2.2,10.7,4.3,14.6,6.4c3.8,2.1,6.9,4.4,9.1,6.9c2.2,2.5,3.8,5.2,4.7,8.2c0.9,3,1.3,6.5,1.3,10.4
			c0,9.3-3.5,16.4-10.5,21.2c-7,4.8-17,7.2-29.8,7.2c-8.4,0-15.4-0.7-21-2.2c-5.6-1.4-9.5-2.6-11.6-3.6l4.5-21.8
			c4.6,1.8,9.2,3.2,14,4.2C645.8,191.5,650.5,192,655.2,192z"/>
		<path class="st1" d="M710.8,164.7c0-8.4,1.3-15.7,3.9-22c2.6-6.3,6-11.5,10.2-15.7c4.2-4.2,9-7.4,14.5-9.5
			c5.5-2.2,11.1-3.2,16.8-3.2c13.4,0,24.1,4.1,31.9,12.3c7.8,8.2,11.7,20.3,11.7,36.3c0,1.6-0.1,3.3-0.2,5.1c-0.1,1.9-0.2,3.5-0.4,5
			h-60.8c0.6,5.5,3.2,9.9,7.7,13.1c4.6,3.2,10.7,4.9,18.4,4.9c4.9,0,9.7-0.5,14.5-1.4c4.7-0.9,8.6-2,11.6-3.3l3.6,21.8
			c-1.4,0.7-3.4,1.4-5.8,2.2c-2.4,0.7-5.1,1.3-8,1.9c-2.9,0.5-6.1,1-9.5,1.4c-3.4,0.4-6.7,0.5-10.1,0.5c-8.5,0-15.9-1.3-22.2-3.8
			s-11.5-6-15.7-10.3c-4.1-4.4-7.2-9.6-9.2-15.6C711.8,178.1,710.8,171.6,710.8,164.7z M773.8,154.4c-0.1-2.3-0.5-4.5-1.2-6.7
			c-0.7-2.2-1.7-4.1-3.1-5.8c-1.4-1.7-3.1-3.1-5.2-4.1c-2.1-1.1-4.7-1.6-7.8-1.6c-3,0-5.6,0.5-7.7,1.5c-2.2,1-4,2.4-5.4,4
			c-1.4,1.7-2.6,3.6-3.3,5.9c-0.8,2.2-1.3,4.5-1.7,6.7H773.8z"/>
		<path class="st1" d="M858.2,213.1c-7.8-0.1-14.1-1-19-2.5c-4.9-1.6-8.7-3.7-11.5-6.6c-2.8-2.8-4.7-6.2-5.8-10.3
			c-1-4-1.5-8.5-1.5-13.6V75.9l26.8-4.3v103.1c0,2.4,0.2,4.6,0.5,6.5c0.4,1.9,1,3.5,2.1,4.9c1,1.3,2.5,2.4,4.4,3.2
			c1.9,0.8,4.5,1.4,7.7,1.6L858.2,213.1z"/>
		<path class="st1" d="M906.7,89.3c0,4.9-1.6,8.8-4.8,11.6c-3.2,2.8-6.9,4.2-11.3,4.2s-8.1-1.4-11.3-4.2c-3.2-2.8-4.8-6.7-4.8-11.6
			c0-4.9,1.6-8.8,4.8-11.6c3.2-2.8,6.9-4.2,11.3-4.2s8.1,1.4,11.3,4.2C905.1,80.5,906.7,84.3,906.7,89.3z M904.1,211.3h-26.8v-94.7
			h26.8V211.3z"/>
		<path class="st1" d="M1000.4,134.6c-2.2,2.4-5.1,5.6-8.7,9.7c-3.7,4.1-7.6,8.6-11.8,13.5c-4.2,4.9-8.4,10.1-12.7,15.5
			c-4.3,5.4-8.1,10.6-11.6,15.7h45.8v22.3H923v-15.8c2.5-4.3,5.5-9,9.1-14c3.5-5,7.3-10,11.2-15c3.9-5,7.8-9.9,11.6-14.7
			c3.8-4.7,7.4-9,10.6-12.9h-40.3v-22.3h75.2V134.6z"/>
		<path class="st1" d="M1012.1,164.7c0-8.4,1.3-15.7,3.9-22c2.6-6.3,6-11.5,10.2-15.7c4.2-4.2,9-7.4,14.5-9.5
			c5.5-2.2,11.1-3.2,16.8-3.2c13.4,0,24.1,4.1,31.9,12.3c7.8,8.2,11.7,20.3,11.7,36.3c0,1.6-0.1,3.3-0.2,5.1c-0.1,1.9-0.2,3.5-0.4,5
			h-60.8c0.6,5.5,3.2,9.9,7.7,13.1c4.6,3.2,10.7,4.9,18.4,4.9c4.9,0,9.7-0.5,14.5-1.4c4.7-0.9,8.6-2,11.6-3.3l3.6,21.8
			c-1.4,0.7-3.4,1.4-5.8,2.2c-2.4,0.7-5.1,1.3-8,1.9c-2.9,0.5-6.1,1-9.5,1.4c-3.4,0.4-6.7,0.5-10.1,0.5c-8.5,0-15.9-1.3-22.2-3.8
			s-11.5-6-15.7-10.3c-4.1-4.4-7.2-9.6-9.2-15.6C1013.1,178.1,1012.1,171.6,1012.1,164.7z M1075.1,154.4c-0.1-2.3-0.5-4.5-1.2-6.7
			c-0.7-2.2-1.7-4.1-3.1-5.8c-1.4-1.7-3.1-3.1-5.2-4.1c-2.1-1.1-4.7-1.6-7.8-1.6c-3,0-5.6,0.5-7.7,1.5c-2.2,1-4,2.4-5.4,4
			c-1.4,1.7-2.6,3.6-3.3,5.9c-0.8,2.2-1.3,4.5-1.7,6.7H1075.1z"/>
		<path class="st1" d="M1178.8,140.4c-2.4-0.6-5.2-1.2-8.5-1.9c-3.2-0.7-6.7-1-10.4-1c-1.7,0-3.7,0.2-6,0.4c-2.3,0.3-4.1,0.6-5.3,1
			v72.4h-26.8v-89.6c4.8-1.7,10.5-3.3,17-4.8c6.5-1.5,13.8-2.3,21.9-2.3c1.4,0,3.2,0.1,5.2,0.3c2,0.2,4.1,0.4,6.1,0.7
			c2,0.3,4.1,0.7,6.1,1.1c2,0.4,3.8,0.9,5.2,1.5L1178.8,140.4z"/>
	</g>
	<g class="st3">
		<path class="st1" d="M302.9,135.9L180.1,13.1c-11.7-11.7-30.7-11.7-42.4,0L14.9,135.9c-11.7,11.7-11.7,30.7,0,42.4l79,79v-99.7h25
			v124.7l18.8,18.8c11.7,11.7,30.7,11.7,42.4,0l122.8-122.8C314.6,166.7,314.6,147.7,302.9,135.9z"/>
		<polygon class="st0" points="93.9,157.6 93.9,257.3 118.9,282.3 118.9,157.6 		"/>
	</g>
	<circle id="P_top" class="st4" cx="158.9" cy="157.1" r="65"/>
	<circle id="P_center" class="st5" cx="158.9" cy="157.1" r="40"/>
</g>
</svg>
